<svg xmlns="http://www.w3.org/2000/svg" viewBox="0 0 1024 1024" role="img" aria-labelledby="title description">
  <title id="title">Dither Lab</title>
  <desc id="description">A dotted letter D inspired by ordered dithering.</desc>
  <rect width="1024" height="1024" rx="220" fill="#11110f"/>
  <g fill="#3c3c35" opacity=".8">
    <circle cx="148" cy="148" r="18"/><circle cx="876" cy="148" r="10"/>
    <circle cx="876" cy="876" r="18"/><circle cx="148" cy="876" r="10"/>
    <circle cx="148" cy="512" r="8"/><circle cx="876" cy="512" r="8"/>
    <circle cx="512" cy="148" r="8"/><circle cx="512" cy="876" r="8"/>
  </g>
  <g fill="#dfff45">
    <circle cx="270" cy="238" r="42"/><circle cx="390" cy="238" r="36"/>
    <circle cx="510" cy="238" r="42"/><circle cx="630" cy="238" r="36"/>
    <circle cx="720" cy="292" r="42"/>
    <circle cx="270" cy="348" r="36"/><circle cx="770" cy="398" r="36"/>
    <circle cx="270" cy="458" r="42"/><circle cx="770" cy="508" r="42"/>
    <circle cx="270" cy="568" r="36"/><circle cx="770" cy="618" r="36"/>
    <circle cx="270" cy="678" r="42"/><circle cx="720" cy="728" r="42"/>
    <circle cx="270" cy="788" r="36"/><circle cx="390" cy="788" r="42"/>
    <circle cx="510" cy="788" r="36"/><circle cx="630" cy="788" r="42"/>
  </g>
  <g fill="#dfff45" opacity=".45">
    <circle cx="347" cy="348" r="13"/><circle cx="347" cy="458" r="9"/>
    <circle cx="347" cy="568" r="13"/><circle cx="347" cy="678" r="9"/>
    <circle cx="692" cy="376" r="9"/><circle cx="702" cy="508" r="13"/>
    <circle cx="692" cy="640" r="9"/>
  </g>
</svg>
